<svg aria-hidden="true" style="width:0;height:0;position:absolute;overflow:hidden" xmlns="http://www.w3.org/2000/svg"><defs><symbol id="icon-heart" viewBox="0 0 32 32"><path stroke-linejoin="round" stroke-linecap="round" stroke-width="2.909" d="M15.991 6.848C13.325 3.731 8.88 2.893 5.54 5.747s-3.81 7.625-1.187 11c2.181 2.806 8.781 8.725 10.944 10.641.242.214.363.321.504.364a.668.668 0 0 0 .381 0c.141-.042.262-.149.504-.364 2.163-1.916 8.763-7.834 10.944-10.641 2.623-3.375 2.21-8.177-1.187-11.001s-7.785-2.015-10.451 1.101z"/></symbol><symbol id="icon-empty-heart" viewBox="0 0 32 32"><path stroke-linejoin="round" stroke-linecap="round" stroke-width="2.909" d="M15.991 6.848C13.325 3.731 8.878 2.892 5.54 5.747c-3.341 2.854-3.811 7.625-1.188 11.001 2.182 2.806 8.781 8.724 10.944 10.64.243.214.364.321.505.364a.677.677 0 0 0 .386-.001l-.005.001c.141-.042.262-.15.505-.364 2.163-1.916 8.762-7.834 10.943-10.64 2.624-3.375 2.211-8.177-1.187-11.001-3.398-2.825-7.785-2.016-10.451 1.101z"/></symbol><symbol id="icon-close" viewBox="0 0 32 32"><path stroke-linejoin="round" stroke-linecap="round" stroke-width="3.556" d="M24 8 8 24M8 8l16 16"/></symbol><symbol id="icon-chevron-down" viewBox="0 0 32 32"><path stroke-linejoin="round" stroke-linecap="round" stroke-width="3.556" d="m8 12 8 8 8-8"/></symbol><symbol id="icon-search" viewBox="0 0 32 32"><path d="M28.947 27.054 24 22.147a11.999 11.999 0 0 0-1.353-16.445 12 12 0 1 0-.5 18.298l4.907 4.907a1.334 1.334 0 0 0 1.894 0 1.336 1.336 0 0 0 0-1.854zm-14.28-3.053a9.33 9.33 0 0 1-8.623-5.762A9.339 9.339 0 0 1 8.067 8.067a9.331 9.331 0 0 1 14.36 1.415 9.33 9.33 0 0 1-1.161 11.785 9.332 9.332 0 0 1-6.6 2.734z"/></symbol><symbol id="icon-basket" viewBox="0 0 32 32"><path stroke-linejoin="round" stroke-linecap="round" stroke-width="2.667" d="M12 29.333a1.333 1.333 0 1 0 0-2.667 1.333 1.333 0 0 0 0 2.667zM26.667 29.333a1.333 1.333 0 1 0 0-2.667 1.333 1.333 0 0 0 0 2.667z"/><path stroke-linejoin="round" stroke-linecap="round" stroke-width="2.4" d="M1.333 1.333h5.333l3.573 17.853a2.671 2.671 0 0 0 2.666 2.147h12.96a2.667 2.667 0 0 0 2.666-2.147l2.133-11.187H7.997"/></symbol><symbol id="icon-burger" viewBox="0 0 32 32"><path stroke-linejoin="round" stroke-linecap="round" stroke-width="2" d="M28 13.333H4M28 8H4M28 18.667H4M28 24H4"/></symbol><symbol id="icon-star" viewBox="0 0 32 32"><path fill="#eea10c" style="fill:var(--color2,#eea10c)" d="M13.826 3.262c.686-2.105 3.664-2.105 4.347 0l1.931 5.943a2.292 2.292 0 0 0 2.174 1.582h6.251c2.215 0 3.134 2.834 1.344 4.135l-5.058 3.673a2.287 2.287 0 0 0-.825 2.572l-.005-.016 1.931 5.945c.686 2.105-1.726 3.858-3.518 2.555l-5.056-3.673c-.372-.273-.839-.437-1.344-.437s-.972.164-1.35.441l.006-.004-5.056 3.673c-1.792 1.303-4.201-.45-3.518-2.555l1.931-5.943a2.282 2.282 0 0 0-.823-2.553l-.006-.004-5.058-3.673c-1.79-1.303-.869-4.137 1.344-4.137h6.251a2.287 2.287 0 0 0 2.167-1.561l.005-.016 1.934-5.943z"/></symbol><symbol id="icon-empty-star" viewBox="0 0 32 32"><path d="M13.826 3.262c.686-2.105 3.664-2.105 4.347 0l1.931 5.943a2.292 2.292 0 0 0 2.174 1.582h6.251c2.215 0 3.134 2.834 1.344 4.135l-5.058 3.673a2.287 2.287 0 0 0-.825 2.572l-.005-.016 1.931 5.945c.686 2.105-1.726 3.858-3.518 2.555l-5.056-3.673c-.372-.273-.839-.437-1.344-.437s-.972.164-1.35.441l.006-.004-5.056 3.673c-1.792 1.303-4.201-.45-3.518-2.555l1.931-5.943a2.282 2.282 0 0 0-.823-2.553l-.006-.004-5.058-3.673c-1.79-1.303-.869-4.137 1.344-4.137h6.251a2.287 2.287 0 0 0 2.167-1.561l.005-.016 1.934-5.943z"/></symbol><symbol id="icon-cooker-hat" viewBox="0 0 38 32"><path fill="#9bb537" style="fill:var(--color1,#9bb537)" d="M7.172 12.69h23.172v17.655H7.172V12.69z"/><path fill="#9bb537" style="fill:var(--color1,#9bb537)" d="M16.552 11.586c0 4.571-3.705 8.276-8.276 8.276S0 16.157 0 11.586 3.705 3.31 8.276 3.31s8.276 3.705 8.276 8.276z"/><path fill="#9bb537" style="fill:var(--color1,#9bb537)" d="M27.034 8.276c0 4.571-3.705 8.276-8.276 8.276s-8.276-3.705-8.276-8.276S14.187 0 18.758 0s8.276 3.705 8.276 8.276z"/><path fill="#9bb537" style="fill:var(--color1,#9bb537)" d="M37.517 11.586c0 4.571-3.705 8.276-8.276 8.276s-8.276-3.705-8.276-8.276S24.67 3.31 29.241 3.31s8.276 3.705 8.276 8.276z"/><path fill="#f8f8f8" style="fill:var(--color2,#f8f8f8)" d="M7.172 29.241h23.172v2.081c0 .374-.324.678-.724.678H7.896c-.4 0-.724-.303-.724-.678v-2.081zM14.345 10.463c0-.598.371-1.084.828-1.084s.828.485.828 1.084v5.005c0 .598-.371 1.084-.828 1.084s-.828-.485-.828-1.084v-5.005zM17.103 10.463c0-.598.618-1.084 1.379-1.084s1.379.485 1.379 1.084v5.005c0 .598-.618 1.084-1.379 1.084s-1.379-.485-1.379-1.084v-5.005zM20.966 10.463c0-.598.494-1.084 1.103-1.084s1.103.485 1.103 1.084v5.005c0 .598-.494 1.084-1.103 1.084s-1.103-.485-1.103-1.084v-5.005z"/><path fill="#050505" style="fill:var(--color3,#050505)" d="M28.184 3.131c.288-.03.581-.045.878-.045A8.333 8.333 0 0 1 37 8.832c-.288.03-.581.045-.878.045a8.333 8.333 0 0 1-7.938-5.746z"/></symbol></defs></svg>