<svg aria-hidden="true" style="position: absolute; width: 0; height: 0; overflow: hidden;" version="1.1" xmlns="http://www.w3.org/2000/svg" xmlns:xlink="http://www.w3.org/1999/xlink">
<defs>
<symbol id="icon-heart" viewBox="0 0 32 32">
<path stroke-linejoin="round" stroke-linecap="round" stroke-miterlimit="4" stroke-width="2.9091" d="M15.991 6.848c-2.666-3.117-7.111-3.955-10.451-1.101s-3.81 7.625-1.187 11c2.181 2.806 8.781 8.725 10.944 10.641 0.242 0.214 0.363 0.321 0.504 0.364 0.123 0.037 0.258 0.037 0.381 0 0.141-0.042 0.262-0.149 0.504-0.364 2.163-1.916 8.763-7.834 10.944-10.641 2.623-3.375 2.21-8.177-1.187-11.001s-7.785-2.015-10.451 1.101z"></path>
</symbol>
<symbol id="icon-empty-heart" viewBox="0 0 32 32">
<path stroke-linejoin="round" stroke-linecap="round" stroke-miterlimit="4" stroke-width="2.9091" d="M15.991 6.848c-2.666-3.117-7.113-3.956-10.451-1.101-3.341 2.854-3.811 7.625-1.188 11.001 2.182 2.806 8.781 8.724 10.944 10.64 0.243 0.214 0.364 0.321 0.505 0.364 0.057 0.017 0.123 0.028 0.191 0.028s0.133-0.010 0.195-0.029l-0.005 0.001c0.141-0.042 0.262-0.15 0.505-0.364 2.163-1.916 8.762-7.834 10.943-10.64 2.624-3.375 2.211-8.177-1.187-11.001-3.398-2.825-7.785-2.016-10.451 1.101z"></path>
</symbol>
<symbol id="icon-close" viewBox="0 0 32 32">
<path stroke-linejoin="round" stroke-linecap="round" stroke-miterlimit="4" stroke-width="3.5556" d="M24 8l-16 16"></path>
<path stroke-linejoin="round" stroke-linecap="round" stroke-miterlimit="4" stroke-width="3.5556" d="M8 8l16 16"></path>
</symbol>
<symbol id="icon-chevron-down" viewBox="0 0 32 32">
<path stroke-linejoin="round" stroke-linecap="round" stroke-miterlimit="4" stroke-width="3.5556" d="M8 12l8 8 8-8"></path>
</symbol>
<symbol id="icon-search" viewBox="0 0 32 32">
<path d="M28.947 27.054l-4.947-4.907c1.92-2.394 2.85-5.433 2.598-8.492s-1.666-5.905-3.951-7.953-5.269-3.143-8.337-3.059c-3.068 0.084-5.987 1.34-8.157 3.51s-3.426 5.089-3.51 8.157c-0.084 3.068 1.011 6.051 3.059 8.337s4.894 3.7 7.953 3.951c3.059 0.252 6.098-0.678 8.492-2.598l4.907 4.907c0.124 0.125 0.271 0.224 0.434 0.292s0.337 0.102 0.513 0.102c0.176 0 0.35-0.035 0.513-0.102s0.31-0.167 0.434-0.292c0.24-0.249 0.375-0.581 0.375-0.927s-0.134-0.678-0.375-0.927zM14.667 24.001c-1.846 0-3.65-0.547-5.185-1.573s-2.731-2.483-3.438-4.189c-0.706-1.705-0.891-3.582-0.531-5.393s1.249-3.474 2.554-4.779c1.305-1.305 2.968-2.194 4.779-2.554s3.687-0.175 5.392 0.531c1.706 0.706 3.163 1.903 4.189 3.438s1.573 3.339 1.573 5.185c0 2.475-0.983 4.849-2.734 6.6s-4.124 2.734-6.6 2.734z"></path>
</symbol>
<symbol id="icon-basket" viewBox="0 0 32 32">
<path stroke-linejoin="round" stroke-linecap="round" stroke-miterlimit="4" stroke-width="2.6667" d="M12 29.333c0.736 0 1.333-0.597 1.333-1.333s-0.597-1.333-1.333-1.333c-0.736 0-1.333 0.597-1.333 1.333s0.597 1.333 1.333 1.333z"></path>
<path stroke-linejoin="round" stroke-linecap="round" stroke-miterlimit="4" stroke-width="2.6667" d="M26.667 29.333c0.736 0 1.333-0.597 1.333-1.333s-0.597-1.333-1.333-1.333c-0.736 0-1.333 0.597-1.333 1.333s0.597 1.333 1.333 1.333z"></path>
<path stroke-linejoin="round" stroke-linecap="round" stroke-miterlimit="4" stroke-width="2.4" d="M1.333 1.333h5.333l3.573 17.853c0.122 0.614 0.456 1.165 0.943 1.558s1.098 0.601 1.723 0.589h12.96c0.626 0.012 1.236-0.197 1.723-0.589s0.821-0.944 0.943-1.558l2.133-11.187h-22.667"></path>
</symbol>
<symbol id="icon-burger" viewBox="0 0 32 32">
<path stroke-linejoin="round" stroke-linecap="round" stroke-miterlimit="4" stroke-width="2" d="M28 13.333h-24"></path>
<path stroke-linejoin="round" stroke-linecap="round" stroke-miterlimit="4" stroke-width="2" d="M28 8h-24"></path>
<path stroke-linejoin="round" stroke-linecap="round" stroke-miterlimit="4" stroke-width="2" d="M28 18.667h-24"></path>
<path stroke-linejoin="round" stroke-linecap="round" stroke-miterlimit="4" stroke-width="2" d="M28 24h-24"></path>
</symbol>
<symbol id="icon-star" viewBox="0 0 32 32">
<path fill="#eea10c" style="fill: var(--color2, #eea10c)" d="M13.826 3.262c0.686-2.105 3.664-2.105 4.347 0l1.931 5.943c0.306 0.925 1.163 1.581 2.174 1.582h6.251c2.215 0 3.134 2.834 1.344 4.135l-5.058 3.673c-0.573 0.42-0.942 1.092-0.942 1.849 0 0.253 0.041 0.496 0.117 0.723l-0.005-0.016 1.931 5.945c0.686 2.105-1.726 3.858-3.518 2.555l-5.056-3.673c-0.372-0.273-0.839-0.437-1.344-0.437s-0.972 0.164-1.35 0.441l0.006-0.004-5.056 3.673c-1.792 1.303-4.201-0.45-3.518-2.555l1.931-5.943c0.071-0.212 0.113-0.455 0.113-0.708 0-0.757-0.368-1.429-0.936-1.845l-0.006-0.004-5.058-3.673c-1.79-1.303-0.869-4.137 1.344-4.137h6.251c1.008-0.001 1.864-0.654 2.167-1.561l0.005-0.016 1.934-5.943z"></path>
</symbol>
<symbol id="icon-empty-star" viewBox="0 0 32 32">
<path d="M13.826 3.262c0.686-2.105 3.664-2.105 4.347 0l1.931 5.943c0.306 0.925 1.163 1.581 2.174 1.582h6.251c2.215 0 3.134 2.834 1.344 4.135l-5.058 3.673c-0.573 0.42-0.942 1.092-0.942 1.849 0 0.253 0.041 0.496 0.117 0.723l-0.005-0.016 1.931 5.945c0.686 2.105-1.726 3.858-3.518 2.555l-5.056-3.673c-0.372-0.273-0.839-0.437-1.344-0.437s-0.972 0.164-1.35 0.441l0.006-0.004-5.056 3.673c-1.792 1.303-4.201-0.45-3.518-2.555l1.931-5.943c0.071-0.212 0.113-0.455 0.113-0.708 0-0.757-0.368-1.429-0.936-1.845l-0.006-0.004-5.058-3.673c-1.79-1.303-0.869-4.137 1.344-4.137h6.251c1.008-0.001 1.864-0.654 2.167-1.561l0.005-0.016 1.934-5.943z"></path>
</symbol>
<symbol id="icon-cooker-hat" viewBox="0 0 38 32">
<path fill="#9bb537" style="fill: var(--color1, #9bb537)" d="M7.172 12.69h23.172v17.655h-23.172v-17.655z"></path>
<path fill="#9bb537" style="fill: var(--color1, #9bb537)" d="M16.552 11.586c0 4.571-3.705 8.276-8.276 8.276s-8.276-3.705-8.276-8.276c0-4.571 3.705-8.276 8.276-8.276s8.276 3.705 8.276 8.276z"></path>
<path fill="#9bb537" style="fill: var(--color1, #9bb537)" d="M27.034 8.276c0 4.571-3.705 8.276-8.276 8.276s-8.276-3.705-8.276-8.276c0-4.571 3.705-8.276 8.276-8.276s8.276 3.705 8.276 8.276z"></path>
<path fill="#9bb537" style="fill: var(--color1, #9bb537)" d="M37.517 11.586c0 4.571-3.705 8.276-8.276 8.276s-8.276-3.705-8.276-8.276c0-4.571 3.705-8.276 8.276-8.276s8.276 3.705 8.276 8.276z"></path>
<path fill="#f8f8f8" style="fill: var(--color2, #f8f8f8)" d="M7.172 29.241h23.172v2.081c0 0.374-0.324 0.678-0.724 0.678h-21.724c-0.4 0-0.724-0.303-0.724-0.678v-2.081z"></path>
<path fill="#f8f8f8" style="fill: var(--color2, #f8f8f8)" d="M14.345 10.463c0-0.598 0.371-1.084 0.828-1.084s0.828 0.485 0.828 1.084v5.005c0 0.598-0.371 1.084-0.828 1.084s-0.828-0.485-0.828-1.084v-5.005z"></path>
<path fill="#f8f8f8" style="fill: var(--color2, #f8f8f8)" d="M17.103 10.463c0-0.598 0.618-1.084 1.379-1.084s1.379 0.485 1.379 1.084v5.005c0 0.598-0.618 1.084-1.379 1.084s-1.379-0.485-1.379-1.084v-5.005z"></path>
<path fill="#f8f8f8" style="fill: var(--color2, #f8f8f8)" d="M20.966 10.463c0-0.598 0.494-1.084 1.103-1.084s1.103 0.485 1.103 1.084v5.005c0 0.598-0.494 1.084-1.103 1.084s-1.103-0.485-1.103-1.084v-5.005z"></path>
<path fill="#050505" style="fill: var(--color3, #050505)" d="M28.184 3.131c0.288-0.030 0.581-0.045 0.878-0.045 3.714 0 6.861 2.413 7.938 5.746-0.288 0.030-0.581 0.045-0.878 0.045-3.714 0-6.861-2.413-7.938-5.746z"></path>
</symbol>
</defs>
</svg>